<svg width="270" height="55.313" viewBox="0 0 491.703 55.313" xmlns="http://www.w3.org/2000/svg"><g id="svgGroup" stroke-linecap="round" fill-rule="evenodd" font-size="9pt" stroke="#000" stroke-width="0" fill="#393a34" style="stroke:#000;stroke-width:0;fill:#393a34"><path d="M 261.976 13.688 L 261.976 54.563 A 0.206 0.206 0 0 1 261.943 54.681 Q 261.871 54.788 261.638 54.788 A 0.749 0.749 0 0 1 261.519 54.779 Q 261.311 54.745 261.301 54.579 A 0.284 0.284 0 0 1 261.301 54.563 A 17.359 17.359 0 0 0 258.39 45.025 A 24.886 24.886 0 0 0 255.413 41.288 A 62.324 62.324 0 0 0 249.582 35.968 Q 245.298 32.503 239.776 29.063 A 111.21 111.21 0 0 1 233.865 25.136 Q 229.045 21.693 225.826 18.45 A 20.642 20.642 0 0 1 222.965 14.903 Q 220.801 11.454 220.801 7.763 L 220.801 41.663 A 22.845 22.845 0 0 0 221.087 45.385 Q 221.596 48.466 223.013 50.7 Q 225.226 54.188 229.276 54.263 Q 229.641 54.263 229.651 54.511 A 0.353 0.353 0 0 1 229.651 54.525 A 0.255 0.255 0 0 1 229.62 54.654 Q 229.561 54.757 229.388 54.781 A 0.834 0.834 0 0 1 229.276 54.788 Q 226.126 54.788 222.976 54.638 A 26.03 26.03 0 0 0 222.125 54.592 Q 221.363 54.563 220.426 54.563 A 50.398 50.398 0 0 0 219.364 54.573 Q 218.532 54.591 217.876 54.638 Q 214.726 54.788 211.576 54.788 A 0.499 0.499 0 0 1 211.463 54.776 Q 211.308 54.74 211.281 54.592 A 0.376 0.376 0 0 1 211.276 54.525 Q 211.276 54.273 211.552 54.263 A 0.646 0.646 0 0 1 211.576 54.263 A 8.448 8.448 0 0 0 214.459 53.735 A 7.252 7.252 0 0 0 217.838 51.038 A 11.618 11.618 0 0 0 219.597 47.054 Q 219.98 45.473 220.04 43.629 A 21.313 21.313 0 0 0 220.051 42.938 L 220.051 16.013 A 115.593 115.593 0 0 0 220.016 13.052 Q 219.945 10.298 219.731 8.468 A 18.598 18.598 0 0 0 219.488 6.9 Q 218.978 4.415 217.757 3.506 A 2.66 2.66 0 0 0 217.501 3.338 A 4.816 4.816 0 0 0 216.489 2.914 Q 215.096 2.49 212.776 2.438 A 0.607 0.607 0 0 1 212.634 2.422 Q 212.445 2.377 212.409 2.193 A 0.488 0.488 0 0 1 212.401 2.1 Q 212.401 1.769 212.762 1.763 A 0.812 0.812 0 0 1 212.776 1.763 A 55.848 55.848 0 0 1 213.985 1.777 Q 215.653 1.813 217.881 1.943 A 174.535 174.535 0 0 1 218.626 1.988 L 220.651 2.063 L 225.826 2.063 Q 225.826 8.288 229.951 13.125 A 40.075 40.075 0 0 0 233.847 17.062 Q 235.875 18.862 238.358 20.668 A 79.761 79.761 0 0 0 241.501 22.838 L 243.151 23.963 A 827.631 827.631 0 0 1 246.366 26.105 Q 250.838 29.1 253.201 30.788 Q 255.908 32.721 257.812 34.572 A 26.574 26.574 0 0 1 258.413 35.175 A 15.405 15.405 0 0 1 259.981 37.067 Q 260.797 38.239 261.256 39.444 A 9.619 9.619 0 0 1 261.301 39.563 L 261.301 14.963 A 22.845 22.845 0 0 0 261.015 11.24 Q 260.506 8.159 259.088 5.925 Q 256.876 2.438 252.826 2.363 A 0.499 0.499 0 0 1 252.713 2.351 Q 252.558 2.315 252.531 2.167 A 0.376 0.376 0 0 1 252.526 2.1 Q 252.526 1.848 252.802 1.838 A 0.646 0.646 0 0 1 252.826 1.838 Q 255.976 1.838 259.126 1.988 A 26.03 26.03 0 0 0 259.977 2.033 Q 260.738 2.063 261.676 2.063 A 46.501 46.501 0 0 0 262.692 2.052 Q 263.495 2.034 264.151 1.988 Q 267.301 1.838 270.451 1.838 Q 270.816 1.838 270.826 2.086 A 0.353 0.353 0 0 1 270.826 2.1 A 0.255 0.255 0 0 1 270.795 2.229 Q 270.736 2.332 270.563 2.356 A 0.834 0.834 0 0 1 270.451 2.363 A 8.286 8.286 0 0 0 267.593 2.834 A 7.075 7.075 0 0 0 264.188 5.513 Q 261.976 8.663 261.976 13.688 Z M 345.151 53.888 L 345.151 54.563 L 308.326 54.563 Q 307.174 54.563 306.451 54.624 A 9.87 9.87 0 0 0 306.301 54.638 A 67.813 67.813 0 0 1 304.353 54.729 Q 303.48 54.758 302.505 54.773 A 137.046 137.046 0 0 1 300.451 54.788 Q 300.086 54.788 300.076 54.539 A 0.353 0.353 0 0 1 300.076 54.525 A 0.255 0.255 0 0 1 300.107 54.396 Q 300.166 54.293 300.338 54.27 A 0.834 0.834 0 0 1 300.451 54.263 Q 303.028 54.204 304.461 53.78 A 4.969 4.969 0 0 0 305.176 53.513 A 2.943 2.943 0 0 0 306.322 52.517 Q 306.864 51.748 307.163 50.513 Q 307.726 48.188 307.726 42.938 L 307.726 13.763 Q 307.726 8.513 307.163 6.188 A 7.329 7.329 0 0 0 306.791 5.039 Q 306.54 4.449 306.203 4.023 A 2.872 2.872 0 0 0 305.176 3.188 Q 303.751 2.513 300.451 2.438 Q 300.086 2.438 300.076 2.189 A 0.353 0.353 0 0 1 300.076 2.175 A 0.255 0.255 0 0 1 300.107 2.046 Q 300.166 1.943 300.338 1.92 A 0.834 0.834 0 0 1 300.451 1.913 A 132.947 132.947 0 0 1 302.891 1.934 Q 303.846 1.951 304.698 1.983 A 65.324 65.324 0 0 1 306.301 2.063 Q 307.051 2.138 308.326 2.138 L 313.501 2.063 L 316.201 1.988 A 95.689 95.689 0 0 1 317.579 1.917 Q 319.801 1.819 322.951 1.763 Q 323.24 1.763 323.343 1.871 A 0.214 0.214 0 0 1 323.401 2.025 A 0.217 0.217 0 0 1 323.268 2.233 Q 323.156 2.288 322.951 2.288 A 36.107 36.107 0 0 0 321.137 2.365 Q 319.349 2.49 318.178 2.796 A 6.63 6.63 0 0 0 317.326 3.075 Q 315.601 3.788 314.926 6.113 Q 314.251 8.438 314.251 13.688 L 314.251 53.888 L 344.476 53.888 A 16.241 16.241 0 0 0 344.306 51.47 Q 344.11 50.17 343.688 49.097 A 8.336 8.336 0 0 0 343.163 48 A 12.522 12.522 0 0 0 341.56 45.778 A 10.261 10.261 0 0 0 339.976 44.363 A 24.655 24.655 0 0 0 338.463 43.363 Q 336.969 42.446 334.951 41.438 A 58.106 58.106 0 0 1 333.035 40.437 Q 331.345 39.512 330.188 38.7 A 9.894 9.894 0 0 1 327.778 36.263 A 11.941 11.941 0 0 1 327.226 35.4 A 8.2 8.2 0 0 1 326.364 33.211 Q 326.121 32.215 326.053 31.05 A 15.991 15.991 0 0 1 326.026 30.113 A 0.89 0.89 0 0 1 326.041 29.938 Q 326.098 29.654 326.363 29.625 Q 326.685 29.589 326.7 30.066 A 1.516 1.516 0 0 1 326.701 30.113 A 12.851 12.851 0 0 0 326.864 32.22 Q 327.137 33.858 327.863 35.1 A 10.432 10.432 0 0 0 329.584 37.323 A 9.207 9.207 0 0 0 330.751 38.288 Q 332.476 39.488 335.401 40.913 Q 337.568 42.021 339.142 42.994 A 27.531 27.531 0 0 1 340.538 43.913 A 10.038 10.038 0 0 1 342.66 45.962 A 13.291 13.291 0 0 1 343.801 47.7 A 10.009 10.009 0 0 1 344.77 50.274 Q 345.05 51.465 345.124 52.855 A 19.348 19.348 0 0 1 345.151 53.888 Z M 393.976 53.888 L 393.976 54.563 L 357.151 54.563 Q 355.999 54.563 355.276 54.624 A 9.87 9.87 0 0 0 355.126 54.638 A 67.813 67.813 0 0 1 353.178 54.729 Q 352.305 54.758 351.33 54.773 A 137.046 137.046 0 0 1 349.276 54.788 Q 348.911 54.788 348.901 54.539 A 0.353 0.353 0 0 1 348.901 54.525 A 0.255 0.255 0 0 1 348.932 54.396 Q 348.991 54.293 349.163 54.27 A 0.834 0.834 0 0 1 349.276 54.263 Q 351.853 54.204 353.286 53.78 A 4.969 4.969 0 0 0 354.001 53.513 A 2.943 2.943 0 0 0 355.147 52.517 Q 355.689 51.748 355.988 50.513 Q 356.551 48.188 356.551 42.938 L 356.551 13.763 Q 356.551 8.513 355.988 6.188 A 7.329 7.329 0 0 0 355.616 5.039 Q 355.365 4.449 355.028 4.023 A 2.872 2.872 0 0 0 354.001 3.188 Q 352.576 2.513 349.276 2.438 Q 348.911 2.438 348.901 2.189 A 0.353 0.353 0 0 1 348.901 2.175 A 0.255 0.255 0 0 1 348.932 2.046 Q 348.991 1.943 349.163 1.92 A 0.834 0.834 0 0 1 349.276 1.913 A 132.947 132.947 0 0 1 351.716 1.934 Q 352.671 1.951 353.523 1.983 A 65.324 65.324 0 0 1 355.126 2.063 Q 355.876 2.138 357.151 2.138 L 362.326 2.063 L 365.026 1.988 A 95.689 95.689 0 0 1 366.404 1.917 Q 368.626 1.819 371.776 1.763 Q 372.065 1.763 372.168 1.871 A 0.214 0.214 0 0 1 372.226 2.025 A 0.217 0.217 0 0 1 372.093 2.233 Q 371.981 2.288 371.776 2.288 A 36.107 36.107 0 0 0 369.962 2.365 Q 368.174 2.49 367.003 2.796 A 6.63 6.63 0 0 0 366.151 3.075 Q 364.426 3.788 363.751 6.113 Q 363.076 8.438 363.076 13.688 L 363.076 53.888 L 393.301 53.888 A 16.241 16.241 0 0 0 393.131 51.47 Q 392.935 50.17 392.513 49.097 A 8.336 8.336 0 0 0 391.988 48 A 12.522 12.522 0 0 0 390.385 45.778 A 10.261 10.261 0 0 0 388.801 44.363 A 24.655 24.655 0 0 0 387.288 43.363 Q 385.794 42.446 383.776 41.438 A 58.106 58.106 0 0 1 381.86 40.437 Q 380.17 39.512 379.013 38.7 A 9.894 9.894 0 0 1 376.603 36.263 A 11.941 11.941 0 0 1 376.051 35.4 A 8.2 8.2 0 0 1 375.189 33.211 Q 374.946 32.215 374.878 31.05 A 15.991 15.991 0 0 1 374.851 30.113 A 0.89 0.89 0 0 1 374.866 29.938 Q 374.923 29.654 375.188 29.625 Q 375.51 29.589 375.525 30.066 A 1.516 1.516 0 0 1 375.526 30.113 A 12.851 12.851 0 0 0 375.689 32.22 Q 375.962 33.858 376.688 35.1 A 10.432 10.432 0 0 0 378.409 37.323 A 9.207 9.207 0 0 0 379.576 38.288 Q 381.301 39.488 384.226 40.913 Q 386.393 42.021 387.967 42.994 A 27.531 27.531 0 0 1 389.363 43.913 A 10.038 10.038 0 0 1 391.485 45.962 A 13.291 13.291 0 0 1 392.626 47.7 A 10.009 10.009 0 0 1 393.595 50.274 Q 393.875 51.465 393.949 52.855 A 19.348 19.348 0 0 1 393.976 53.888 Z M 475.801 21.113 L 478.126 22.613 A 107.581 107.581 0 0 1 481.154 24.559 Q 482.547 25.489 483.717 26.347 A 48.875 48.875 0 0 1 485.213 27.488 Q 487.951 29.663 489.826 32.7 A 12.65 12.65 0 0 1 491.664 38.558 A 15.51 15.51 0 0 1 491.701 39.638 Q 491.701 44.288 489.001 47.813 A 16.176 16.176 0 0 1 484.36 51.877 A 21.182 21.182 0 0 1 481.501 53.288 A 26.218 26.218 0 0 1 475.003 54.963 A 33.779 33.779 0 0 1 470.626 55.238 A 23.162 23.162 0 0 1 464.871 54.549 A 19.076 19.076 0 0 1 460.276 52.725 Q 455.776 50.213 453.338 45.675 A 20.195 20.195 0 0 1 451.216 39.23 A 26.591 26.591 0 0 1 450.901 35.063 Q 450.901 34.088 451.051 32.138 A 0.607 0.607 0 0 1 451.066 31.996 Q 451.111 31.807 451.295 31.771 A 0.488 0.488 0 0 1 451.388 31.763 Q 451.72 31.763 451.726 32.124 A 0.812 0.812 0 0 1 451.726 32.138 Q 451.588 34.071 451.577 34.988 A 12.59 12.59 0 0 0 451.576 35.138 A 23.546 23.546 0 0 0 452.288 41.025 A 19.97 19.97 0 0 0 453.826 45.113 Q 456.076 49.538 460.388 52.05 A 18.195 18.195 0 0 0 466.575 54.238 A 24.305 24.305 0 0 0 470.626 54.563 Q 476.955 54.563 481.501 52.447 A 18.399 18.399 0 0 0 482.513 51.938 Q 486.722 49.654 487.269 44.986 A 12.44 12.44 0 0 0 487.351 43.538 A 10.827 10.827 0 0 0 486.642 39.593 A 10.202 10.202 0 0 0 485.851 37.988 Q 484.351 35.513 482.138 33.563 Q 479.95 31.634 476.184 28.898 A 160.75 160.75 0 0 0 476.101 28.838 Q 471.976 25.763 470.701 24.638 A 168.926 168.926 0 0 0 468.706 26.011 Q 465.873 27.994 463.988 29.513 Q 461.476 31.538 459.713 34.238 Q 457.951 36.938 457.951 40.313 Q 457.951 40.688 457.613 40.725 A 0.467 0.467 0 0 1 457.575 40.728 Q 457.324 40.735 457.284 40.438 A 0.931 0.931 0 0 1 457.276 40.313 A 12.066 12.066 0 0 1 458.09 35.85 A 11.38 11.38 0 0 1 459.038 33.975 Q 460.801 31.163 463.388 29.063 A 58.486 58.486 0 0 1 465.456 27.466 Q 466.471 26.716 467.651 25.896 A 131.377 131.377 0 0 1 470.176 24.188 Q 466.801 21.263 464.926 18.038 A 13.904 13.904 0 0 1 463.117 12.203 A 17.114 17.114 0 0 1 463.051 10.688 Q 463.051 7.988 464.701 5.85 Q 466.351 3.713 468.938 2.55 A 13.076 13.076 0 0 1 472.596 1.49 A 11.869 11.869 0 0 1 474.151 1.388 A 10.305 10.305 0 0 1 477.245 1.834 A 8.51 8.51 0 0 1 480.413 3.638 A 7.349 7.349 0 0 1 482.727 7.802 A 10.916 10.916 0 0 1 482.926 9.938 Q 482.926 13.238 481.088 15.863 A 18.889 18.889 0 0 1 479.172 18.159 Q 478.144 19.221 476.852 20.282 A 35.869 35.869 0 0 1 475.801 21.113 Z M 52.426 36.113 A 0.207 0.207 0 0 0 52.367 36.121 Q 52.247 36.156 52.126 36.338 A 50.788 50.788 0 0 1 51.157 38.459 Q 43.887 53.438 30.901 53.438 Q 20.926 53.438 15.076 47.55 A 24.718 24.718 0 0 1 10.275 40.729 A 29.491 29.491 0 0 1 7.801 32.513 A 8.456 8.456 0 0 1 7.847 31.947 A 6.145 6.145 0 0 1 10.163 27.675 A 12.768 12.768 0 0 1 12.535 26.188 A 16.107 16.107 0 0 1 15.563 25.088 Q 17.755 24.52 20.992 23.953 A 147.006 147.006 0 0 1 24.151 23.438 A 186.18 186.18 0 0 0 24.435 23.391 Q 30.686 22.363 34.463 21.3 A 18.132 18.132 0 0 0 34.942 21.158 A 15.469 15.469 0 0 0 41.063 17.625 A 8.415 8.415 0 0 0 43.455 13.464 A 12.288 12.288 0 0 0 43.801 10.463 A 6.75 6.75 0 0 0 41.65 5.428 A 10.567 10.567 0 0 0 39.451 3.825 A 16.035 16.035 0 0 0 36.936 2.697 Q 34.962 2.002 32.579 1.676 A 33.451 33.451 0 0 0 28.051 1.388 Q 20.176 1.463 13.763 5.25 Q 7.351 9.038 3.676 15.375 Q 0.001 21.713 0.001 29.213 A 32.2 32.2 0 0 0 0.244 33.224 A 25.359 25.359 0 0 0 3.451 42.938 Q 6.901 48.863 12.976 52.088 A 26.629 26.629 0 0 0 18.82 54.348 A 31.689 31.689 0 0 0 26.776 55.313 A 39.018 39.018 0 0 0 27.802 55.299 Q 36.919 55.059 42.638 50.513 Q 48.676 45.713 52.651 36.713 Q 52.707 36.488 52.679 36.347 A 0.335 0.335 0 0 0 52.651 36.263 Q 52.612 36.185 52.554 36.148 A 0.232 0.232 0 0 0 52.426 36.113 Z M 95.326 54.563 L 89.476 54.563 A 67.05 67.05 0 0 0 88.66 54.567 Q 87.507 54.581 86.776 54.638 A 116.341 116.341 0 0 1 84.213 54.729 Q 83.062 54.758 81.771 54.773 A 240.136 240.136 0 0 1 79.051 54.788 Q 78.526 54.788 78.526 54.525 A 0.21 0.21 0 0 1 78.655 54.329 Q 78.757 54.277 78.94 54.266 A 1.767 1.767 0 0 1 79.051 54.263 A 25.94 25.94 0 0 0 80.819 54.167 Q 82.911 53.977 84.151 53.438 A 4.129 4.129 0 0 0 85.216 52.782 A 3.177 3.177 0 0 0 86.251 51.038 Q 80.851 44.813 74.176 40.575 A 59.779 59.779 0 0 0 64.251 35.464 A 52.73 52.73 0 0 0 60.601 34.163 Q 63.751 36.113 66.038 39.3 A 12.001 12.001 0 0 1 68.08 44.243 A 16.326 16.326 0 0 1 68.326 47.138 A 8.189 8.189 0 0 1 66.182 52.685 A 10.43 10.43 0 0 1 66.113 52.763 Q 63.901 55.238 60.076 55.238 Q 55.126 55.238 52.688 52.463 A 9.675 9.675 0 0 1 50.403 47.456 A 13.232 13.232 0 0 1 50.251 45.413 A 16.769 16.769 0 0 1 51.959 38.106 A 20.351 20.351 0 0 1 52.651 36.788 L 69.526 7.913 L 67.726 3.713 Q 67.586 3.502 67.773 3.423 A 0.38 0.38 0 0 1 67.801 3.413 Q 72.001 1.988 73.051 0.038 Q 73.166 -0.02 73.237 0.011 A 0.125 0.125 0 0 1 73.276 0.038 L 91.576 43.238 A 116.76 116.76 0 0 0 92.478 45.314 Q 93.779 48.225 94.763 49.913 Q 95.734 51.577 96.808 52.585 A 6.939 6.939 0 0 0 97.576 53.213 A 5.648 5.648 0 0 0 99.682 54.102 A 8.006 8.006 0 0 0 101.326 54.263 A 0.499 0.499 0 0 1 101.439 54.274 Q 101.593 54.31 101.62 54.458 A 0.376 0.376 0 0 1 101.626 54.525 Q 101.626 54.777 101.349 54.787 A 0.646 0.646 0 0 1 101.326 54.788 Q 98.851 54.788 96.901 54.638 Q 96.464 54.575 95.665 54.565 A 25.828 25.828 0 0 0 95.326 54.563 Z M 203.551 54.563 L 197.701 54.563 A 67.05 67.05 0 0 0 196.885 54.567 Q 195.732 54.581 195.001 54.638 A 116.341 116.341 0 0 1 192.438 54.729 Q 191.287 54.758 189.996 54.773 A 240.136 240.136 0 0 1 187.276 54.788 Q 186.751 54.788 186.751 54.525 A 0.21 0.21 0 0 1 186.88 54.329 Q 186.982 54.277 187.165 54.266 A 1.767 1.767 0 0 1 187.276 54.263 A 25.94 25.94 0 0 0 189.044 54.167 Q 191.136 53.977 192.376 53.438 A 4.129 4.129 0 0 0 193.441 52.782 A 3.177 3.177 0 0 0 194.476 51.038 Q 189.076 44.813 182.401 40.575 A 59.779 59.779 0 0 0 172.476 35.464 A 52.73 52.73 0 0 0 168.826 34.163 Q 171.976 36.113 174.263 39.3 A 12.001 12.001 0 0 1 176.305 44.243 A 16.326 16.326 0 0 1 176.551 47.138 A 8.189 8.189 0 0 1 174.407 52.685 A 10.43 10.43 0 0 1 174.338 52.763 Q 172.126 55.238 168.301 55.238 Q 163.351 55.238 160.913 52.463 A 9.675 9.675 0 0 1 158.628 47.456 A 13.232 13.232 0 0 1 158.476 45.413 A 16.769 16.769 0 0 1 160.184 38.106 A 20.351 20.351 0 0 1 160.876 36.788 L 177.751 7.913 L 175.951 3.713 Q 175.811 3.502 175.998 3.423 A 0.38 0.38 0 0 1 176.026 3.413 Q 180.226 1.988 181.276 0.038 Q 181.391 -0.02 181.462 0.011 A 0.125 0.125 0 0 1 181.501 0.038 L 199.801 43.238 A 116.76 116.76 0 0 0 200.703 45.314 Q 202.004 48.225 202.988 49.913 Q 203.959 51.577 205.033 52.585 A 6.939 6.939 0 0 0 205.801 53.213 A 5.648 5.648 0 0 0 207.907 54.102 A 8.006 8.006 0 0 0 209.551 54.263 A 0.499 0.499 0 0 1 209.664 54.274 Q 209.818 54.31 209.845 54.458 A 0.376 0.376 0 0 1 209.851 54.525 Q 209.851 54.777 209.574 54.787 A 0.646 0.646 0 0 1 209.551 54.788 Q 207.076 54.788 205.126 54.638 Q 204.689 54.575 203.89 54.565 A 25.828 25.828 0 0 0 203.551 54.563 Z M 443.251 54.563 L 437.401 54.563 A 67.05 67.05 0 0 0 436.585 54.567 Q 435.432 54.581 434.701 54.638 A 116.341 116.341 0 0 1 432.138 54.729 Q 430.987 54.758 429.696 54.773 A 240.136 240.136 0 0 1 426.976 54.788 Q 426.451 54.788 426.451 54.525 A 0.21 0.21 0 0 1 426.58 54.329 Q 426.682 54.277 426.865 54.266 A 1.767 1.767 0 0 1 426.976 54.263 A 25.94 25.94 0 0 0 428.744 54.167 Q 430.836 53.977 432.076 53.438 A 4.129 4.129 0 0 0 433.141 52.782 A 3.177 3.177 0 0 0 434.176 51.038 Q 428.776 44.813 422.101 40.575 A 59.779 59.779 0 0 0 412.176 35.464 A 52.73 52.73 0 0 0 408.526 34.163 Q 411.676 36.113 413.963 39.3 A 12.001 12.001 0 0 1 416.005 44.243 A 16.326 16.326 0 0 1 416.251 47.138 A 8.189 8.189 0 0 1 414.107 52.685 A 10.43 10.43 0 0 1 414.038 52.763 Q 411.826 55.238 408.001 55.238 Q 403.051 55.238 400.613 52.463 A 9.675 9.675 0 0 1 398.328 47.456 A 13.232 13.232 0 0 1 398.176 45.413 A 16.769 16.769 0 0 1 399.884 38.106 A 20.351 20.351 0 0 1 400.576 36.788 L 417.451 7.913 L 415.651 3.713 Q 415.511 3.502 415.698 3.423 A 0.38 0.38 0 0 1 415.726 3.413 Q 419.926 1.988 420.976 0.038 Q 421.091 -0.02 421.162 0.011 A 0.125 0.125 0 0 1 421.201 0.038 L 439.501 43.238 A 116.76 116.76 0 0 0 440.403 45.314 Q 441.704 48.225 442.688 49.913 Q 443.659 51.577 444.733 52.585 A 6.939 6.939 0 0 0 445.501 53.213 A 5.648 5.648 0 0 0 447.607 54.102 A 8.006 8.006 0 0 0 449.251 54.263 A 0.499 0.499 0 0 1 449.364 54.274 Q 449.518 54.31 449.545 54.458 A 0.376 0.376 0 0 1 449.551 54.525 Q 449.551 54.777 449.274 54.787 A 0.646 0.646 0 0 1 449.251 54.788 Q 446.776 54.788 444.826 54.638 Q 444.389 54.575 443.59 54.565 A 25.828 25.828 0 0 0 443.251 54.563 Z M 128.101 54.563 L 110.101 54.563 Q 108.949 54.563 108.226 54.624 A 9.87 9.87 0 0 0 108.076 54.638 A 67.813 67.813 0 0 1 106.128 54.729 Q 105.255 54.758 104.28 54.773 A 137.046 137.046 0 0 1 102.226 54.788 Q 101.861 54.788 101.851 54.539 A 0.353 0.353 0 0 1 101.851 54.525 A 0.255 0.255 0 0 1 101.882 54.396 Q 101.941 54.293 102.113 54.27 A 0.834 0.834 0 0 1 102.226 54.263 Q 104.803 54.204 106.236 53.78 A 4.969 4.969 0 0 0 106.951 53.513 A 2.943 2.943 0 0 0 108.097 52.517 Q 108.639 51.748 108.938 50.513 Q 109.501 48.188 109.501 42.938 L 109.501 18.563 A 26.221 26.221 0 0 1 105.878 15.985 A 20.333 20.333 0 0 1 103.201 13.238 A 12.853 12.853 0 0 1 101.786 11.081 Q 101.032 9.61 100.855 8.138 A 7.547 7.547 0 0 1 100.801 7.238 A 8.384 8.384 0 0 1 101.004 5.302 Q 101.626 2.692 104.144 2.178 A 6.322 6.322 0 0 1 105.076 2.063 L 123.001 2.063 A 59.234 59.234 0 0 1 128.345 2.287 Q 133.686 2.773 137.161 4.307 A 16.045 16.045 0 0 1 137.813 4.613 A 10.002 10.002 0 0 1 140.738 6.738 Q 142.951 9.122 142.951 12.863 Q 142.951 16.538 138.901 19.2 Q 134.851 21.863 128.401 22.463 Q 137.225 23.478 143.577 26.294 A 34.405 34.405 0 0 1 145.801 27.375 A 14.961 14.961 0 0 1 149.609 30.184 Q 152.714 33.42 152.775 38.245 A 15.342 15.342 0 0 1 152.776 38.438 A 13.872 13.872 0 0 1 151.984 43.2 A 12.287 12.287 0 0 1 149.401 47.4 A 18.342 18.342 0 0 1 144.303 51.214 A 24.445 24.445 0 0 1 140.401 52.8 A 38.623 38.623 0 0 1 132.17 54.39 A 47.064 47.064 0 0 1 128.101 54.563 Z M 287.926 13.688 L 287.926 42.938 Q 287.926 48.188 288.488 50.513 A 7.329 7.329 0 0 0 288.86 51.661 Q 289.112 52.251 289.449 52.678 A 2.872 2.872 0 0 0 290.476 53.513 Q 291.901 54.188 295.201 54.263 Q 295.566 54.263 295.576 54.511 A 0.353 0.353 0 0 1 295.576 54.525 A 0.255 0.255 0 0 1 295.545 54.654 Q 295.486 54.757 295.313 54.781 A 0.834 0.834 0 0 1 295.201 54.788 A 132.947 132.947 0 0 1 292.761 54.766 Q 291.806 54.749 290.953 54.717 A 65.324 65.324 0 0 1 289.351 54.638 Q 288.601 54.563 287.326 54.563 L 282.001 54.563 Q 280.849 54.563 280.126 54.624 A 9.87 9.87 0 0 0 279.976 54.638 A 67.813 67.813 0 0 1 278.028 54.729 Q 277.155 54.758 276.18 54.773 A 137.046 137.046 0 0 1 274.126 54.788 Q 273.761 54.788 273.751 54.539 A 0.353 0.353 0 0 1 273.751 54.525 A 0.255 0.255 0 0 1 273.782 54.396 Q 273.841 54.293 274.013 54.27 A 0.834 0.834 0 0 1 274.126 54.263 Q 276.703 54.204 278.136 53.78 A 4.969 4.969 0 0 0 278.851 53.513 A 2.943 2.943 0 0 0 279.997 52.517 Q 280.539 51.748 280.838 50.513 Q 281.401 48.188 281.401 42.938 L 281.401 13.688 Q 281.401 8.438 280.838 6.113 A 7.329 7.329 0 0 0 280.466 4.964 Q 280.215 4.374 279.878 3.948 A 2.872 2.872 0 0 0 278.851 3.113 Q 277.426 2.438 274.126 2.363 Q 273.761 2.363 273.751 2.114 A 0.353 0.353 0 0 1 273.751 2.1 A 0.255 0.255 0 0 1 273.782 1.971 Q 273.841 1.868 274.013 1.845 A 0.834 0.834 0 0 1 274.126 1.838 A 132.947 132.947 0 0 1 276.566 1.859 Q 277.521 1.876 278.373 1.908 A 65.324 65.324 0 0 1 279.976 1.988 Q 280.726 2.063 282.001 2.063 L 287.326 2.063 Q 288.478 2.063 289.201 2.001 A 9.87 9.87 0 0 0 289.351 1.988 A 67.813 67.813 0 0 1 291.298 1.896 Q 292.172 1.867 293.147 1.852 A 137.046 137.046 0 0 1 295.201 1.838 Q 295.566 1.838 295.576 2.086 A 0.353 0.353 0 0 1 295.576 2.1 A 0.255 0.255 0 0 1 295.545 2.229 Q 295.486 2.332 295.313 2.356 A 0.834 0.834 0 0 1 295.201 2.363 Q 292.624 2.421 291.191 2.845 A 4.969 4.969 0 0 0 290.476 3.113 A 2.943 2.943 0 0 0 289.329 4.108 Q 288.787 4.877 288.488 6.113 Q 287.926 8.438 287.926 13.688 Z M 84.526 43.238 L 69.826 8.663 L 53.176 37.238 Q 51.001 40.913 51.001 45.263 A 11.97 11.97 0 0 0 51.372 48.318 A 9.005 9.005 0 0 0 53.251 51.938 A 7.114 7.114 0 0 0 56.735 54.127 Q 57.913 54.474 59.335 54.545 A 14.977 14.977 0 0 0 60.076 54.563 A 8.74 8.74 0 0 0 62.485 54.247 A 6.492 6.492 0 0 0 65.626 52.275 A 8.384 8.384 0 0 0 67.062 50.063 A 7.076 7.076 0 0 0 67.651 47.213 A 13.709 13.709 0 0 0 67.047 43.081 A 11.908 11.908 0 0 0 65.626 40.088 A 20.679 20.679 0 0 0 63.706 37.586 Q 62.496 36.248 61.163 35.325 A 33.648 33.648 0 0 0 60.017 34.563 Q 58.902 33.857 58.101 33.505 A 5.487 5.487 0 0 0 57.451 33.263 L 57.301 33.263 Q 56.934 33.189 56.962 32.865 A 0.587 0.587 0 0 1 56.963 32.85 Q 57.001 32.514 57.297 32.587 A 0.568 0.568 0 0 1 57.301 32.588 A 49.318 49.318 0 0 1 65.09 35.154 Q 68.729 36.68 72.542 38.859 A 80.704 80.704 0 0 1 72.788 39 A 55.293 55.293 0 0 1 81.92 45.519 A 47.053 47.053 0 0 1 86.401 50.063 A 9.523 9.523 0 0 0 86.218 48.3 Q 85.876 46.498 84.896 44.109 A 39.317 39.317 0 0 0 84.526 43.238 Z M 192.751 43.238 L 178.051 8.663 L 161.401 37.238 Q 159.226 40.913 159.226 45.263 A 11.97 11.97 0 0 0 159.597 48.318 A 9.005 9.005 0 0 0 161.476 51.938 A 7.114 7.114 0 0 0 164.96 54.127 Q 166.138 54.474 167.56 54.545 A 14.977 14.977 0 0 0 168.301 54.563 A 8.74 8.74 0 0 0 170.71 54.247 A 6.492 6.492 0 0 0 173.851 52.275 A 8.384 8.384 0 0 0 175.287 50.063 A 7.076 7.076 0 0 0 175.876 47.213 A 13.709 13.709 0 0 0 175.272 43.081 A 11.908 11.908 0 0 0 173.851 40.088 A 20.679 20.679 0 0 0 171.931 37.586 Q 170.721 36.248 169.388 35.325 A 33.648 33.648 0 0 0 168.242 34.563 Q 167.127 33.857 166.326 33.505 A 5.487 5.487 0 0 0 165.676 33.263 L 165.526 33.263 Q 165.159 33.189 165.187 32.865 A 0.587 0.587 0 0 1 165.188 32.85 Q 165.226 32.514 165.522 32.587 A 0.568 0.568 0 0 1 165.526 32.588 A 49.318 49.318 0 0 1 173.315 35.154 Q 176.954 36.68 180.767 38.859 A 80.704 80.704 0 0 1 181.013 39 A 55.293 55.293 0 0 1 190.145 45.519 A 47.053 47.053 0 0 1 194.626 50.063 A 9.523 9.523 0 0 0 194.443 48.3 Q 194.101 46.498 193.121 44.109 A 39.317 39.317 0 0 0 192.751 43.238 Z M 432.451 43.238 L 417.751 8.663 L 401.101 37.238 Q 398.926 40.913 398.926 45.263 A 11.97 11.97 0 0 0 399.297 48.318 A 9.005 9.005 0 0 0 401.176 51.938 A 7.114 7.114 0 0 0 404.66 54.127 Q 405.838 54.474 407.26 54.545 A 14.977 14.977 0 0 0 408.001 54.563 A 8.74 8.74 0 0 0 410.41 54.247 A 6.492 6.492 0 0 0 413.551 52.275 A 8.384 8.384 0 0 0 414.987 50.063 A 7.076 7.076 0 0 0 415.576 47.213 A 13.709 13.709 0 0 0 414.972 43.081 A 11.908 11.908 0 0 0 413.551 40.088 A 20.679 20.679 0 0 0 411.631 37.586 Q 410.421 36.248 409.088 35.325 A 33.648 33.648 0 0 0 407.942 34.563 Q 406.827 33.857 406.026 33.505 A 5.487 5.487 0 0 0 405.376 33.263 L 405.226 33.263 Q 404.859 33.189 404.887 32.865 A 0.587 0.587 0 0 1 404.888 32.85 Q 404.926 32.514 405.222 32.587 A 0.568 0.568 0 0 1 405.226 32.588 A 49.318 49.318 0 0 1 413.015 35.154 Q 416.654 36.68 420.467 38.859 A 80.704 80.704 0 0 1 420.713 39 A 55.293 55.293 0 0 1 429.845 45.519 A 47.053 47.053 0 0 1 434.326 50.063 A 9.523 9.523 0 0 0 434.143 48.3 Q 433.801 46.498 432.821 44.109 A 39.317 39.317 0 0 0 432.451 43.238 Z M 117.151 53.888 L 127.051 53.888 Q 132.2 53.888 135.922 52.325 A 15.633 15.633 0 0 0 137.213 51.713 A 16.803 16.803 0 0 0 140.632 49.341 A 13.361 13.361 0 0 0 143.288 46.05 Q 145.276 42.563 145.276 38.513 A 18.084 18.084 0 0 0 144.737 33.958 A 11.871 11.871 0 0 0 139.763 26.85 Q 134.479 23.291 124.059 22.868 A 67.129 67.129 0 0 0 123.151 22.838 Q 119.851 22.763 116.026 21.488 L 116.026 41.738 A 103.64 103.64 0 0 0 116.096 45.703 Q 116.242 49.5 116.692 51.963 A 16.348 16.348 0 0 0 117.151 53.888 Z M 28.051 2.063 Q 22.651 2.063 17.926 4.763 Q 13.201 7.463 10.276 12.975 A 23.691 23.691 0 0 0 8.082 19.134 Q 7.351 22.538 7.351 26.588 Q 7.351 27.564 7.439 29.199 A 122.54 122.54 0 0 0 7.501 30.263 A 7.1 7.1 0 0 1 10.36 26.56 A 9.072 9.072 0 0 1 10.726 26.325 A 17.33 17.33 0 0 1 14.999 24.475 A 20.241 20.241 0 0 1 16.126 24.188 Q 18.989 23.543 23.696 22.831 A 223.554 223.554 0 0 1 24.151 22.763 A 154.595 154.595 0 0 0 27.836 22.149 Q 31.611 21.471 34.163 20.775 A 15.131 15.131 0 0 0 38.938 18.564 A 14.152 14.152 0 0 0 40.501 17.288 A 8.113 8.113 0 0 0 42.856 13.022 A 12.189 12.189 0 0 0 43.126 10.388 A 6.115 6.115 0 0 0 40.833 5.577 A 10.554 10.554 0 0 0 38.963 4.313 A 16.826 16.826 0 0 0 34.991 2.815 Q 31.953 2.063 28.051 2.063 Z M 121.726 2.738 L 116.701 2.738 A 15.322 15.322 0 0 0 116.405 4.322 Q 116.026 7.05 116.026 11.888 L 116.026 20.813 Q 120.001 22.088 123.151 22.163 L 123.301 22.163 Q 128.401 22.163 130.988 21.188 A 8.086 8.086 0 0 0 132.572 20.398 Q 133.649 19.692 134.257 18.699 A 4.956 4.956 0 0 0 134.513 18.225 A 8.369 8.369 0 0 0 135.075 16.568 Q 135.275 15.72 135.368 14.706 A 20.944 20.944 0 0 0 135.451 12.788 A 13.424 13.424 0 0 0 135.159 9.889 Q 134.767 8.118 133.848 6.83 A 7.021 7.021 0 0 0 131.963 5.025 Q 128.544 2.782 121.989 2.738 A 39.263 39.263 0 0 0 121.726 2.738 Z M 466.801 9.263 Q 466.801 12.713 468.976 15.338 A 20.68 20.68 0 0 0 470.881 17.327 Q 472.698 19.003 475.276 20.738 Q 478.016 18.667 479.718 16.596 A 16.457 16.457 0 0 0 480.451 15.638 Q 482.251 13.088 482.251 9.938 Q 482.251 7.01 480.977 5.199 A 5.765 5.765 0 0 0 479.813 3.975 Q 477.376 2.063 474.151 2.063 A 13.275 13.275 0 0 0 472.148 2.203 Q 471.121 2.36 470.31 2.693 A 4.915 4.915 0 0 0 468.488 3.938 A 6.123 6.123 0 0 0 467.197 6.29 Q 466.801 7.591 466.801 9.263 Z M 109.501 17.738 L 109.501 10.463 A 27.381 27.381 0 0 0 109.355 8.401 Q 109.062 5.784 108.263 4.463 A 3.877 3.877 0 0 0 107.262 3.333 Q 106.358 2.663 105.076 2.663 A 4.547 4.547 0 0 0 103.417 3.132 Q 101.476 4.153 101.476 7.238 A 7.664 7.664 0 0 0 102.24 10.514 Q 102.73 11.561 103.535 12.602 A 13.944 13.944 0 0 0 103.651 12.75 Q 105.824 15.485 109.494 17.733 A 32.155 32.155 0 0 0 109.501 17.738 Z" vector-effect="non-scaling-stroke"/></g></svg>