<svg width="180.993" height="54.227" viewBox="0 0 180.993 54.227" xmlns="http://www.w3.org/2000/svg"><g id="svgGroup" stroke-linecap="round" fill-rule="evenodd" font-size="9pt" stroke="#000" stroke-width="0" fill="#393a34" style="stroke:#000;stroke-width:0;fill:#393a34"><path d="M 52.426 34.725 A 0.207 0.207 0 0 0 52.367 34.734 Q 52.247 34.769 52.126 34.95 A 50.788 50.788 0 0 1 51.157 37.072 Q 43.887 52.05 30.901 52.05 Q 20.926 52.05 15.076 46.163 A 24.718 24.718 0 0 1 10.275 39.342 A 29.491 29.491 0 0 1 7.801 31.125 A 8.456 8.456 0 0 1 7.847 30.56 A 6.145 6.145 0 0 1 10.163 26.288 A 12.768 12.768 0 0 1 12.535 24.8 A 16.107 16.107 0 0 1 15.563 23.7 Q 17.755 23.133 20.992 22.566 A 147.006 147.006 0 0 1 24.151 22.05 A 186.18 186.18 0 0 0 24.435 22.004 Q 30.686 20.976 34.463 19.913 A 18.132 18.132 0 0 0 34.942 19.771 A 15.469 15.469 0 0 0 41.063 16.238 A 8.415 8.415 0 0 0 43.455 12.077 A 12.288 12.288 0 0 0 43.801 9.075 A 6.75 6.75 0 0 0 41.65 4.04 A 10.567 10.567 0 0 0 39.451 2.438 A 16.035 16.035 0 0 0 36.936 1.31 Q 34.962 0.615 32.579 0.288 A 33.451 33.451 0 0 0 28.051 0 Q 20.176 0.075 13.763 3.863 Q 7.351 7.65 3.676 13.988 Q 0.001 20.325 0.001 27.825 A 32.2 32.2 0 0 0 0.244 31.837 A 25.359 25.359 0 0 0 3.451 41.55 Q 6.901 47.475 12.976 50.7 A 26.629 26.629 0 0 0 18.82 52.961 A 31.689 31.689 0 0 0 26.776 53.925 A 39.018 39.018 0 0 0 27.802 53.912 Q 36.919 53.672 42.638 49.125 Q 48.676 44.325 52.651 35.325 Q 52.707 35.1 52.679 34.96 A 0.335 0.335 0 0 0 52.651 34.875 Q 52.612 34.798 52.554 34.761 A 0.232 0.232 0 0 0 52.426 34.725 Z M 86.026 47.85 L 83.476 34.2 Q 83.176 39.15 80.776 43.763 Q 78.376 48.375 74.213 51.3 Q 70.051 54.225 64.726 54.225 Q 60.601 54.225 57.901 52.088 Q 55.201 49.95 55.201 46.35 A 5.729 5.729 0 0 1 56.882 42.27 A 7.63 7.63 0 0 1 57.113 42.038 Q 59.026 40.2 61.763 38.925 A 60.594 60.594 0 0 1 63.661 38.084 Q 65.954 37.111 69.151 35.925 A 166.282 166.282 0 0 0 71.248 35.164 Q 74.223 34.06 76.163 33.188 A 16.616 16.616 0 0 0 78.636 31.827 A 12.999 12.999 0 0 0 80.476 30.338 A 5.545 5.545 0 0 0 81.554 28.902 Q 82.141 27.753 82.051 26.4 A 25.619 25.619 0 0 0 81.063 22.927 Q 80.023 20.099 78.413 18.225 A 10.16 10.16 0 0 0 76.704 16.621 Q 74.892 15.3 72.826 15.3 A 17.757 17.757 0 0 0 66.948 16.235 A 15.139 15.139 0 0 0 60.563 20.55 Q 57.163 24.358 54.414 30.731 A 70.702 70.702 0 0 0 52.426 35.925 Q 52.305 36.107 52.184 36.142 A 0.207 0.207 0 0 1 52.126 36.15 Q 51.99 36.15 51.909 36.096 A 0.244 0.244 0 0 1 51.826 36 Q 51.76 35.868 51.81 35.735 A 0.392 0.392 0 0 1 51.826 35.7 A 84.104 84.104 0 0 1 53.78 30.624 Q 55.445 26.71 57.226 23.85 A 22.664 22.664 0 0 1 60.376 19.828 A 18.248 18.248 0 0 1 64.126 16.913 Q 68.176 14.55 73.876 14.55 A 20.367 20.367 0 0 1 77.929 14.932 Q 80.908 15.536 83.138 17.1 A 8.964 8.964 0 0 1 85.545 19.709 Q 87.109 22.189 87.949 26.236 A 35.14 35.14 0 0 1 88.126 27.15 L 91.876 48.225 A 10.652 10.652 0 0 0 92.248 49.773 A 7.712 7.712 0 0 0 92.926 51.3 Q 93.414 52.131 94.062 52.42 A 1.79 1.79 0 0 0 94.801 52.575 Q 96.001 52.575 96.788 51.75 A 9.804 9.804 0 0 0 97.264 51.209 Q 97.761 50.604 98.383 49.704 A 41.828 41.828 0 0 0 98.776 49.125 A 0.407 0.407 0 0 1 98.845 49.045 Q 98.982 48.924 99.188 49.013 A 0.408 0.408 0 0 1 99.292 49.075 Q 99.414 49.178 99.388 49.365 A 0.594 0.594 0 0 1 99.376 49.425 A 17.812 17.812 0 0 1 98.439 50.882 Q 97.536 52.137 96.601 52.875 Q 95.322 53.885 93.258 53.988 A 9.623 9.623 0 0 1 92.776 54 A 8.73 8.73 0 0 1 90.975 53.827 Q 89.148 53.441 88.088 52.2 Q 86.551 50.4 86.026 47.85 Z M 167.626 47.85 L 165.076 34.2 Q 164.776 39.15 162.376 43.763 Q 159.976 48.375 155.813 51.3 Q 151.651 54.225 146.326 54.225 Q 142.201 54.225 139.501 52.088 Q 136.801 49.95 136.801 46.35 A 5.729 5.729 0 0 1 138.482 42.27 A 7.63 7.63 0 0 1 138.713 42.038 Q 140.626 40.2 143.363 38.925 A 60.594 60.594 0 0 1 145.261 38.084 Q 147.554 37.111 150.751 35.925 A 166.282 166.282 0 0 0 152.848 35.164 Q 155.823 34.06 157.763 33.188 A 16.616 16.616 0 0 0 160.236 31.827 A 12.999 12.999 0 0 0 162.076 30.338 A 5.545 5.545 0 0 0 163.154 28.902 Q 163.741 27.753 163.651 26.4 A 25.619 25.619 0 0 0 162.663 22.927 Q 161.623 20.099 160.013 18.225 A 10.16 10.16 0 0 0 158.304 16.621 Q 156.492 15.3 154.426 15.3 A 17.757 17.757 0 0 0 148.548 16.235 A 15.139 15.139 0 0 0 142.163 20.55 Q 138.763 24.358 136.014 30.731 A 70.702 70.702 0 0 0 134.026 35.925 Q 133.905 36.107 133.784 36.142 A 0.207 0.207 0 0 1 133.726 36.15 Q 133.59 36.15 133.509 36.096 A 0.244 0.244 0 0 1 133.426 36 Q 133.36 35.868 133.41 35.735 A 0.392 0.392 0 0 1 133.426 35.7 A 84.104 84.104 0 0 1 135.38 30.624 Q 137.045 26.71 138.826 23.85 A 22.664 22.664 0 0 1 141.976 19.828 A 18.248 18.248 0 0 1 145.726 16.913 Q 149.776 14.55 155.476 14.55 A 20.367 20.367 0 0 1 159.529 14.932 Q 162.508 15.536 164.738 17.1 A 8.964 8.964 0 0 1 167.145 19.709 Q 168.709 22.189 169.549 26.236 A 35.14 35.14 0 0 1 169.726 27.15 L 173.476 48.225 A 10.652 10.652 0 0 0 173.848 49.773 A 7.712 7.712 0 0 0 174.526 51.3 Q 175.014 52.131 175.662 52.42 A 1.79 1.79 0 0 0 176.401 52.575 Q 177.601 52.575 178.388 51.75 A 9.804 9.804 0 0 0 178.864 51.209 Q 179.361 50.604 179.983 49.704 A 41.828 41.828 0 0 0 180.376 49.125 A 0.407 0.407 0 0 1 180.445 49.045 Q 180.582 48.924 180.788 49.013 A 0.408 0.408 0 0 1 180.892 49.075 Q 181.014 49.178 180.988 49.365 A 0.594 0.594 0 0 1 180.976 49.425 A 17.812 17.812 0 0 1 180.039 50.882 Q 179.136 52.137 178.201 52.875 Q 176.922 53.885 174.858 53.988 A 9.623 9.623 0 0 1 174.376 54 A 8.73 8.73 0 0 1 172.575 53.827 Q 170.748 53.441 169.688 52.2 Q 168.151 50.4 167.626 47.85 Z M 103.876 41.85 L 103.876 15.975 L 98.176 15.975 A 0.432 0.432 0 0 1 98.057 15.96 Q 97.924 15.922 97.889 15.786 A 0.442 0.442 0 0 1 97.876 15.675 Q 97.876 15.375 98.176 15.3 Q 102.901 13.725 105.713 10.763 A 13.646 13.646 0 0 0 108.378 6.609 A 19.295 19.295 0 0 0 109.501 2.85 A 0.556 0.556 0 0 1 109.531 2.776 Q 109.601 2.639 109.715 2.66 A 0.193 0.193 0 0 1 109.726 2.663 A 0.246 0.246 0 0 1 109.795 2.691 Q 109.864 2.733 109.874 2.82 A 0.267 0.267 0 0 1 109.876 2.85 L 109.876 15.3 L 126.376 15.3 A 0.89 0.89 0 0 1 126.55 15.316 Q 126.834 15.373 126.863 15.638 Q 126.899 15.96 126.423 15.975 A 1.516 1.516 0 0 1 126.376 15.975 L 109.801 15.975 L 109.801 39.675 A 21.68 21.68 0 0 0 110.172 43.791 Q 110.694 46.489 111.948 48.65 A 13.797 13.797 0 0 0 112.051 48.825 Q 114.301 52.575 118.576 52.575 A 10.06 10.06 0 0 0 126.107 49.248 A 14.566 14.566 0 0 0 127.051 48.15 A 29.277 29.277 0 0 0 129.543 44.325 Q 131.541 40.716 133.276 35.7 A 0.699 0.699 0 0 1 133.34 35.574 Q 133.491 35.347 133.763 35.438 Q 134.078 35.543 133.969 35.875 A 0.824 0.824 0 0 1 133.951 35.925 A 80.394 80.394 0 0 1 132.274 40.298 Q 131.449 42.267 130.59 43.97 A 45.705 45.705 0 0 1 130.013 45.075 Q 127.951 48.9 124.651 51.413 A 12.251 12.251 0 0 1 118.466 53.829 A 15.869 15.869 0 0 1 116.701 53.925 A 15.318 15.318 0 0 1 112.182 53.286 A 12.519 12.519 0 0 1 107.551 50.7 Q 103.876 47.475 103.876 41.85 Z M 28.051 0.675 Q 22.651 0.675 17.926 3.375 Q 13.201 6.075 10.276 11.588 A 23.691 23.691 0 0 0 8.082 17.747 Q 7.351 21.15 7.351 25.2 Q 7.351 26.176 7.439 27.812 A 122.54 122.54 0 0 0 7.501 28.875 A 7.1 7.1 0 0 1 10.36 25.173 A 9.072 9.072 0 0 1 10.726 24.938 A 17.33 17.33 0 0 1 14.999 23.088 A 20.241 20.241 0 0 1 16.126 22.8 Q 18.989 22.156 23.696 21.444 A 223.554 223.554 0 0 1 24.151 21.375 A 154.595 154.595 0 0 0 27.836 20.762 Q 31.611 20.084 34.163 19.388 A 15.131 15.131 0 0 0 38.938 17.177 A 14.152 14.152 0 0 0 40.501 15.9 A 8.113 8.113 0 0 0 42.856 11.635 A 12.189 12.189 0 0 0 43.126 9 A 6.115 6.115 0 0 0 40.833 4.19 A 10.554 10.554 0 0 0 38.963 2.925 A 16.826 16.826 0 0 0 34.991 1.427 Q 31.953 0.675 28.051 0.675 Z M 83.026 31.65 L 82.426 28.5 Q 81.759 30.575 79.481 32.028 A 10.572 10.572 0 0 1 79.426 32.063 A 25.769 25.769 0 0 1 77.79 33.003 Q 75.788 34.064 72.901 35.25 A 109.985 109.985 0 0 0 70.707 36.198 Q 68.459 37.2 66.938 38.025 Q 64.726 39.225 63.188 41.1 A 6.763 6.763 0 0 0 61.664 45.115 A 8.619 8.619 0 0 0 61.651 45.6 A 5.679 5.679 0 0 0 62.038 47.735 Q 62.552 49.014 63.748 49.929 A 6.51 6.51 0 0 0 63.826 49.988 Q 65.882 51.512 69.077 51.595 A 14.323 14.323 0 0 0 69.451 51.6 A 8.912 8.912 0 0 0 74.349 50.106 A 12.65 12.65 0 0 0 76.163 48.675 Q 79.276 45.75 81.151 41.138 Q 83.026 36.525 83.026 31.65 Z M 164.626 31.65 L 164.026 28.5 Q 163.359 30.575 161.081 32.028 A 10.572 10.572 0 0 1 161.026 32.063 A 25.769 25.769 0 0 1 159.39 33.003 Q 157.388 34.064 154.501 35.25 A 109.985 109.985 0 0 0 152.307 36.198 Q 150.059 37.2 148.538 38.025 Q 146.326 39.225 144.788 41.1 A 6.763 6.763 0 0 0 143.264 45.115 A 8.619 8.619 0 0 0 143.251 45.6 A 5.679 5.679 0 0 0 143.638 47.735 Q 144.152 49.014 145.348 49.929 A 6.51 6.51 0 0 0 145.426 49.988 Q 147.482 51.512 150.677 51.595 A 14.323 14.323 0 0 0 151.051 51.6 A 8.912 8.912 0 0 0 155.949 50.106 A 12.65 12.65 0 0 0 157.763 48.675 Q 160.876 45.75 162.751 41.138 Q 164.626 36.525 164.626 31.65 Z" vector-effect="non-scaling-stroke"/></g></svg>